<svg width="480" height="220" viewBox="0 0 480 220"
     xmlns="http://www.w3.org/2000/svg">
  <rect width="480" height="220" rx="10" fill="#0d1117"/>

  <!-- Title -->
  <text x="20" y="36" fill="#fff" font-size="15" font-weight="bold"
        font-family="monospace">jeswinbenedict's GitHub Stats</text>
  <line x1="20" y1="46" x2="460" y2="46" stroke="#21262d" stroke-width="1"/>

  <!-- Stat numbers -->
  <text x="64.0" y="68" fill="#fff" font-size="18" font-weight="bold" text-anchor="middle" font-family="monospace">201</text><text x="64.0" y="86" fill="#666" font-size="10" text-anchor="middle" font-family="monospace">Commits</text><text x="152.0" y="68" fill="#fff" font-size="18" font-weight="bold" text-anchor="middle" font-family="monospace">1</text><text x="152.0" y="86" fill="#666" font-size="10" text-anchor="middle" font-family="monospace">PRs</text><text x="240.0" y="68" fill="#fff" font-size="18" font-weight="bold" text-anchor="middle" font-family="monospace">0</text><text x="240.0" y="86" fill="#666" font-size="10" text-anchor="middle" font-family="monospace">Issues</text><text x="328.0" y="68" fill="#fff" font-size="18" font-weight="bold" text-anchor="middle" font-family="monospace">4</text><text x="328.0" y="86" fill="#666" font-size="10" text-anchor="middle" font-family="monospace">Stars</text><text x="416.0" y="68" fill="#fff" font-size="18" font-weight="bold" text-anchor="middle" font-family="monospace">11</text><text x="416.0" y="86" fill="#666" font-size="10" text-anchor="middle" font-family="monospace">Followers</text>

  <line x1="20" y1="100" x2="460" y2="100" stroke="#21262d" stroke-width="1"/>

  <!-- Language label -->
  <text x="20" y="122" fill="#888" font-size="11" font-family="monospace">
    Most Used Languages
  </text>

  <!-- Bar -->
  <rect x="20" y="148" width="180.85" height="8" fill="#00B4AB" rx="2"/><rect x="200.85" y="148" width="103.73" height="8" fill="#3D6117" rx="2"/><rect x="304.58" y="148" width="84.91" height="8" fill="#f1e05a" rx="2"/><rect x="389.49" y="148" width="46.76" height="8" fill="#f34b7d" rx="2"/><rect x="436.25" y="148" width="23.75" height="8" fill="#3572A5" rx="2"/>

  <!-- Legend -->
  <circle cx="26" cy="172" r="5" fill="#00B4AB"/><text x="36" y="176" fill="#888" font-size="11" font-family="monospace">Dart <tspan fill="#ccc">41.1%</tspan></text><circle cx="246" cy="172" r="5" fill="#3D6117"/><text x="256" y="176" fill="#888" font-size="11" font-family="monospace">TeX <tspan fill="#ccc">23.6%</tspan></text><circle cx="26" cy="192" r="5" fill="#f1e05a"/><text x="36" y="196" fill="#888" font-size="11" font-family="monospace">JavaScript <tspan fill="#ccc">19.3%</tspan></text><circle cx="246" cy="192" r="5" fill="#f34b7d"/><text x="256" y="196" fill="#888" font-size="11" font-family="monospace">C++ <tspan fill="#ccc">10.6%</tspan></text><circle cx="26" cy="212" r="5" fill="#3572A5"/><text x="36" y="216" fill="#888" font-size="11" font-family="monospace">Python <tspan fill="#ccc">5.4%</tspan></text>
</svg>